<?xml version="1.0" encoding="UTF-8" standalone="no"?>
<!DOCTYPE svg PUBLIC "-//W3C//DTD SVG 1.1//EN"
 "http://www.w3.org/Graphics/SVG/1.1/DTD/svg11.dtd">
<!-- Generated by graphviz version 14.1.4 (20260321.0153)
 -->
<!-- Pages: 1 -->
<svg width="1029pt" height="100pt"
 viewBox="0.00 0.00 1029.00 100.00" xmlns="http://www.w3.org/2000/svg" xmlns:xlink="http://www.w3.org/1999/xlink">
<g id="graph0" class="graph" transform="scale(1 1) rotate(0) translate(4 96)">
<polygon fill="white" stroke="none" points="-4,4 -4,-96 1025,-96 1025,4 -4,4"/>
<!-- 2830703241424 -->
<g id="node1" class="node">
<title>2830703241424</title>
<polygon fill="none" stroke="black" points="573.5,-31.5 573.5,-67.5 734.25,-67.5 734.25,-31.5 573.5,-31.5"/>
<text xml:space="preserve" text-anchor="middle" x="653.88" y="-44.7" font-family="Times New Roman,serif" font-size="14.00">data=8.0000grad=16.0000</text>
</g>
<!-- 2830703237392**2 -->
<g id="node5" class="node">
<title>2830703237392**2</title>
<ellipse fill="none" stroke="black" cx="797.25" cy="-49.5" rx="27" ry="18"/>
<text xml:space="preserve" text-anchor="middle" x="797.25" y="-44.45" font-family="Times New Roman,serif" font-size="14.00">**2</text>
</g>
<!-- 2830703241424&#45;&gt;2830703237392**2 -->
<g id="edge5" class="edge">
<title>2830703241424&#45;&gt;2830703237392**2</title>
<path fill="none" stroke="black" d="M734.65,-49.5C742.86,-49.5 750.89,-49.5 758.31,-49.5"/>
<polygon fill="black" stroke="black" points="758.25,-53 768.25,-49.5 758.25,-46 758.25,-53"/>
</g>
<!-- 2830703241424+ -->
<g id="node2" class="node">
<title>2830703241424+</title>
<ellipse fill="none" stroke="black" cx="510.5" cy="-49.5" rx="27" ry="18"/>
<text xml:space="preserve" text-anchor="middle" x="510.5" y="-44.45" font-family="Times New Roman,serif" font-size="14.00">+</text>
</g>
<!-- 2830703241424+&#45;&gt;2830703241424 -->
<g id="edge1" class="edge">
<title>2830703241424+&#45;&gt;2830703241424</title>
<path fill="none" stroke="black" d="M537.76,-49.5C545,-49.5 553.29,-49.5 562.03,-49.5"/>
<polygon fill="black" stroke="black" points="561.78,-53 571.78,-49.5 561.78,-46 561.78,-53"/>
</g>
<!-- 2830703238928 -->
<g id="node3" class="node">
<title>2830703238928</title>
<polygon fill="none" stroke="black" points="0,-0.5 0,-36.5 160.75,-36.5 160.75,-0.5 0,-0.5"/>
<text xml:space="preserve" text-anchor="middle" x="80.38" y="-13.7" font-family="Times New Roman,serif" font-size="14.00">data=3.0000grad=32.0000</text>
</g>
<!-- 2830703247328* -->
<g id="node8" class="node">
<title>2830703247328*</title>
<ellipse fill="none" stroke="black" cx="223.75" cy="-26.5" rx="27" ry="18"/>
<text xml:space="preserve" text-anchor="middle" x="223.75" y="-21.45" font-family="Times New Roman,serif" font-size="14.00">*</text>
</g>
<!-- 2830703238928&#45;&gt;2830703247328* -->
<g id="edge4" class="edge">
<title>2830703238928&#45;&gt;2830703247328*</title>
<path fill="none" stroke="black" d="M161.15,-23.01C169.54,-23.49 177.75,-23.95 185.3,-24.38"/>
<polygon fill="black" stroke="black" points="184.87,-27.86 195.06,-24.93 185.27,-20.87 184.87,-27.86"/>
</g>
<!-- 2830703237392 -->
<g id="node4" class="node">
<title>2830703237392</title>
<polygon fill="none" stroke="black" points="860.25,-31.5 860.25,-67.5 1021,-67.5 1021,-31.5 860.25,-31.5"/>
<text xml:space="preserve" text-anchor="middle" x="940.62" y="-44.7" font-family="Times New Roman,serif" font-size="14.00">data=64.0000grad=1.0000</text>
</g>
<!-- 2830703237392**2&#45;&gt;2830703237392 -->
<g id="edge2" class="edge">
<title>2830703237392**2&#45;&gt;2830703237392</title>
<path fill="none" stroke="black" d="M824.51,-49.5C831.75,-49.5 840.04,-49.5 848.78,-49.5"/>
<polygon fill="black" stroke="black" points="848.53,-53 858.53,-49.5 848.53,-46 848.53,-53"/>
</g>
<!-- 2830703243632 -->
<g id="node6" class="node">
<title>2830703243632</title>
<polygon fill="none" stroke="black" points="0,-55.5 0,-91.5 160.75,-91.5 160.75,-55.5 0,-55.5"/>
<text xml:space="preserve" text-anchor="middle" x="80.38" y="-68.7" font-family="Times New Roman,serif" font-size="14.00">data=2.0000grad=64.0000</text>
</g>
<!-- 2830703243632&#45;&gt;2830703241424+ -->
<g id="edge7" class="edge">
<title>2830703243632&#45;&gt;2830703241424+</title>
<path fill="none" stroke="black" d="M161.05,-70.02C235.24,-66.63 348.9,-61.03 447.5,-54.5 455.39,-53.98 463.84,-53.34 471.88,-52.71"/>
<polygon fill="black" stroke="black" points="472.07,-56.2 481.76,-51.91 471.51,-49.23 472.07,-56.2"/>
</g>
<!-- 2830703243632&#45;&gt;2830703247328* -->
<g id="edge8" class="edge">
<title>2830703243632&#45;&gt;2830703247328*</title>
<path fill="none" stroke="black" d="M136.84,-55.06C154.27,-49.26 173,-43.04 188.5,-37.88"/>
<polygon fill="black" stroke="black" points="189.34,-41.3 197.73,-34.82 187.13,-34.65 189.34,-41.3"/>
</g>
<!-- 2830703247328 -->
<g id="node7" class="node">
<title>2830703247328</title>
<polygon fill="none" stroke="black" points="286.75,-8.5 286.75,-44.5 447.5,-44.5 447.5,-8.5 286.75,-8.5"/>
<text xml:space="preserve" text-anchor="middle" x="367.12" y="-21.7" font-family="Times New Roman,serif" font-size="14.00">data=6.0000grad=16.0000</text>
</g>
<!-- 2830703247328&#45;&gt;2830703241424+ -->
<g id="edge6" class="edge">
<title>2830703247328&#45;&gt;2830703241424+</title>
<path fill="none" stroke="black" d="M447.9,-39.48C456.55,-40.89 465.02,-42.26 472.77,-43.52"/>
<polygon fill="black" stroke="black" points="471.99,-46.94 482.42,-45.1 473.12,-40.03 471.99,-46.94"/>
</g>
<!-- 2830703247328*&#45;&gt;2830703247328 -->
<g id="edge3" class="edge">
<title>2830703247328*&#45;&gt;2830703247328</title>
<path fill="none" stroke="black" d="M251.01,-26.5C258.25,-26.5 266.54,-26.5 275.28,-26.5"/>
<polygon fill="black" stroke="black" points="275.03,-30 285.03,-26.5 275.03,-23 275.03,-30"/>
</g>
</g>
</svg>
